<svg width="16.000000" height="12.000000" viewBox="0 0 16 12" fill="none" xmlns="http://www.w3.org/2000/svg" xmlns:xlink="http://www.w3.org/1999/xlink">
	<desc>
			Created with Pixso.
	</desc>
	<defs>
		<clipPath id="clip18_2921">
			<rect width="16.000000" height="12.000000" fill="white" fill-opacity="0"/>
		</clipPath>
	</defs>
	<rect width="16.000000" height="12.000000" fill="#FFFFFF" fill-opacity="0"/>
	<g clip-path="url(#clip18_2921)">
		<path d="M3.33 1.5L3.33 10.5L7.33 10.5L7.33 8.75L8.66 8.75L8.66 10.5L12.66 10.5L12.66 1.5L3.33 1.5ZM4.66 2.5L6 2.5L6 3.5L4.66 3.5L4.66 2.5ZM7.33 2.5L8.66 2.5L8.66 3.5L7.33 3.5L7.33 2.5ZM10 2.5L11.33 2.5L11.33 3.5L10 3.5L10 2.5ZM4.66 4.5L6 4.5L6 5.5L4.66 5.5L4.66 4.5ZM7.33 4.5L8.66 4.5L8.66 5.5L7.33 5.5L7.33 4.5ZM10 4.5L11.33 4.5L11.33 5.5L10 5.5L10 4.5ZM4.66 6.5L6 6.5L6 7.5L4.66 7.5L4.66 6.5ZM7.33 6.5L8.66 6.5L8.66 7.5L7.33 7.5L7.33 6.5ZM10 6.5L11.33 6.5L11.33 7.5L10 7.5L10 6.5ZM4.66 8.5L6 8.5L6 9.5L4.66 9.5L4.66 8.5ZM10 8.5L11.33 8.5L11.33 9.5L10 9.5L10 8.5Z" fill="#A7A7A7" fill-opacity="1.000000" fill-rule="nonzero"/>
	</g>
</svg>
