<svg width="30.000000" height="30.000000" viewBox="0 0 30 30" fill="none" xmlns="http://www.w3.org/2000/svg" xmlns:xlink="http://www.w3.org/1999/xlink">
	<path d="M15 0C6.71 0 0 6.71 0 15C0 21.63 4.29 27.24 10.25 29.23C11 29.36 11.28 28.91 11.28 28.51C11.28 28.16 11.26 26.98 11.26 25.72C7.5 26.41 6.52 24.8 6.22 23.96C6.05 23.53 5.32 22.2 4.68 21.84C4.16 21.56 3.41 20.86 4.66 20.85C5.85 20.83 6.69 21.93 6.97 22.38C8.32 24.65 10.48 24.01 11.34 23.62C11.47 22.64 11.86 21.99 12.3 21.61C8.96 21.24 5.47 19.95 5.47 14.21C5.47 12.58 6.05 11.23 7.01 10.18C6.86 9.8 6.33 8.26 7.16 6.2C7.16 6.2 8.41 5.81 11.28 7.74C12.48 7.4 13.76 7.23 15.03 7.23C16.31 7.23 17.58 7.4 18.78 7.74C21.65 5.79 22.91 6.2 22.91 6.2C23.73 8.26 23.21 9.8 23.06 10.18C24.01 11.23 24.6 12.56 24.6 14.21C24.6 19.96 21.09 21.24 17.75 21.61C18.29 22.08 18.76 22.98 18.76 24.39C18.76 26.39 18.75 28.01 18.75 28.51C18.75 28.91 19.03 29.38 19.78 29.23C22.75 28.22 25.34 26.31 27.17 23.75C29.01 21.2 29.99 18.14 30 15C30 6.71 23.28 0 15 0Z" fill="#666666" fill-opacity="1.000000" fill-rule="evenodd"/>
</svg>
