<svg width="29.000000" height="29.000000" viewBox="0 0 29 29" fill="none" xmlns="http://www.w3.org/2000/svg" xmlns:xlink="http://www.w3.org/1999/xlink">
	<path  d="M14 -0.4C6.04 -0.4 -0.4 6.04 -0.4 14C-0.4 21.95 6.04 28.4 14 28.4C21.95 28.4 28.4 21.95 28.4 14C28.4 6.04 21.95 -0.4 14 -0.4ZM10.47 19.96L7.55 19.96L7.55 10.58L10.47 10.58L10.47 19.96ZM8.99 9.43C8.07 9.43 7.48 8.78 7.48 7.97C7.48 7.14 8.09 6.51 9.03 6.51C9.97 6.51 10.55 7.14 10.57 7.97C10.57 8.78 9.97 9.43 8.99 9.43ZM21.12 19.96L18.2 19.96L18.2 14.76C18.2 13.55 17.78 12.73 16.73 12.73C15.92 12.73 15.44 13.29 15.23 13.82C15.15 14.01 15.13 14.28 15.13 14.55L15.13 19.96L12.22 19.96L12.22 13.57C12.22 12.4 12.18 11.42 12.14 10.58L14.67 10.58L14.81 11.88L14.87 11.88C15.25 11.27 16.19 10.37 17.76 10.37C19.68 10.37 21.12 11.65 21.12 14.42L21.12 19.96Z" fill="#666666" fill-opacity="1.000000" fill-rule="nonzero"/>
</svg>
