<?xml version="1.0" standalone="no"?>
<!DOCTYPE svg PUBLIC "-//W3C//DTD SVG 20010904//EN"
 "http://www.w3.org/TR/2001/REC-SVG-20010904/DTD/svg10.dtd">
<svg version="1.0" xmlns="http://www.w3.org/2000/svg"
 width="94.000000pt" height="94.000000pt" viewBox="0 0 94.000000 94.000000"
 preserveAspectRatio="xMidYMid meet">
<metadata>
Created by potrace 1.14, written by Peter Selinger 2001-2017
</metadata>
<g transform="translate(0.000000,94.000000) scale(0.100000,-0.100000)"
fill="#000000" stroke="none">
<path d="M68 753 c-22 -6 -31 -34 -24 -77 6 -36 -16 -72 -35 -61 -5 4 -9 -4
-9 -17 0 -15 8 -27 23 -33 19 -9 22 -17 21 -60 -1 -53 9 -70 48 -80 32 -8 43
16 18 38 -15 12 -18 25 -14 59 4 39 2 46 -20 58 l-26 13 23 11 c18 10 22 20
22 59 0 26 5 51 11 55 6 4 13 15 17 25 7 17 -13 21 -55 10z"/>
<path d="M755 749 c-4 -6 3 -18 15 -26 18 -13 21 -22 15 -49 -7 -39 8 -74 32
-74 11 0 8 -6 -11 -21 -22 -18 -25 -26 -21 -61 4 -31 1 -44 -12 -53 -27 -20
-26 -46 2 -41 49 9 64 24 63 64 -1 63 1 70 22 77 11 4 20 15 20 27 0 11 -8 22
-20 25 -22 6 -22 6 -23 73 0 49 -16 69 -54 70 -12 0 -25 -5 -28 -11z"/>
<path d="M215 710 c-30 -11 -43 -31 -53 -76 -11 -53 3 -125 29 -146 31 -26 81
-23 108 6 46 48 37 177 -14 210 -27 18 -40 19 -70 6z m49 -45 c3 -8 2 -15 -2
-15 -5 0 -16 -23 -26 -50 -10 -28 -21 -49 -23 -46 -10 9 -4 85 7 105 13 25 35
27 44 6z m12 -97 c-8 -51 -13 -58 -36 -58 -17 0 -17 2 3 50 26 61 42 65 33 8z"/>
<path d="M414 710 c-23 -9 -36 -25 -42 -50 -22 -88 -5 -161 41 -183 36 -18 69
-9 97 26 28 34 23 157 -7 189 -24 25 -55 32 -89 18z m50 -38 c3 -5 -2 -22 -10
-38 -9 -16 -16 -31 -16 -34 0 -3 -6 -16 -14 -30 -14 -24 -14 -23 -12 25 1 28
6 58 12 68 11 18 31 23 40 9z m16 -96 c0 -46 -24 -86 -42 -68 -7 7 30 112 40
112 1 0 2 -20 2 -44z"/>
<path d="M566 705 c-8 -21 8 -32 44 -30 59 3 61 -1 24 -78 -19 -40 -39 -80
-45 -90 -8 -14 -4 -19 16 -27 15 -6 28 -10 29 -10 4 0 12 28 14 43 0 4 8 19
16 32 32 48 72 164 58 166 -41 8 -152 3 -156 -6z"/>
<path d="M884 341 c-48 -12 -55 -20 -51 -60 4 -48 13 -61 43 -61 13 0 24 -5
24 -11 0 -8 -13 -9 -40 -5 -33 5 -38 4 -33 -9 9 -25 97 -17 101 9 5 22 -23 47
-43 40 -7 -3 -16 -1 -20 5 -4 7 4 11 19 11 27 0 41 26 30 55 -5 13 -4 16 4 11
7 -4 12 -1 12 8 0 17 0 17 -46 7z m6 -47 c0 -8 -7 -14 -15 -14 -15 0 -21 21
-9 33 10 9 24 -2 24 -19z"/>
<path d="M0 262 c0 -63 3 -79 15 -79 9 0 15 10 15 24 0 17 6 23 23 23 31 0 47
18 47 51 0 50 -9 59 -56 59 l-44 0 0 -78z m68 25 c2 -15 -1 -27 -7 -27 -6 0
-14 0 -18 0 -9 0 -13 41 -6 53 9 16 28 0 31 -26z"/>
<path d="M172 321 c-30 -8 -27 -26 4 -25 13 1 24 -3 24 -7 0 -5 -6 -9 -14 -9
-8 0 -24 -9 -37 -19 -23 -19 -23 -19 -5 -40 10 -11 23 -18 29 -14 5 3 22 6 37
5 25 -1 27 2 24 36 -2 20 -3 42 -3 47 -1 17 -35 32 -59 26z m28 -76 c0 -8 -7
-15 -15 -15 -16 0 -20 12 -8 23 11 12 23 8 23 -8z"/>
<path d="M436 322 c-14 -13 -5 -30 13 -25 10 3 22 0 25 -5 3 -6 -7 -13 -23
-17 -54 -12 -50 -76 4 -65 5 1 21 2 35 4 23 1 25 5 24 44 -1 24 -4 45 -7 48
-9 9 -66 22 -71 16z m44 -71 c0 -12 -20 -25 -27 -18 -7 7 6 27 18 27 5 0 9 -4
9 -9z"/>
<path d="M280 293 c18 -63 30 -83 48 -83 13 0 22 12 31 41 7 23 15 47 18 55 3
8 -1 14 -10 14 -9 0 -22 -18 -30 -42 -9 -24 -16 -35 -16 -25 -1 9 0 18 1 20 5
8 -25 47 -37 47 -10 0 -12 -7 -5 -27z"/>
<path d="M550 263 c0 -46 3 -53 19 -53 16 0 19 6 17 35 -2 20 2 40 10 46 15
12 16 9 18 -51 1 -14 8 -26 17 -28 14 -2 16 5 14 45 -1 26 -3 51 -4 55 0 3
-21 6 -46 6 l-45 -1 0 -54z"/>
<path d="M679 304 c-5 -60 0 -94 14 -94 10 0 13 12 12 40 -1 22 2 40 7 40 8 0
11 -20 8 -57 -1 -14 4 -23 13 -23 10 0 13 11 12 40 -1 23 2 43 7 46 7 4 13
-52 9 -78 0 -5 6 -8 15 -8 12 0 14 10 12 53 l-3 52 -52 1 c-39 1 -53 -2 -54
-12z"/>
</g>
</svg>
