<svg width="30.000000" height="30.000000" viewBox="0 0 30 30" fill="none" xmlns="http://www.w3.org/2000/svg" xmlns:xlink="http://www.w3.org/1999/xlink">
	<path id="Vector" d="M14.87 -0.13C6.59 -0.13 -0.13 6.59 -0.13 14.87C-0.13 23.15 6.59 29.87 14.87 29.87C23.15 29.87 29.87 23.15 29.87 14.87C29.87 6.59 23.15 -0.13 14.87 -0.13ZM22.08 11.18C22.09 11.33 22.09 11.5 22.09 11.66C22.09 16.57 18.35 22.24 11.51 22.24C9.4 22.24 7.44 21.62 5.79 20.57C6.09 20.6 6.38 20.62 6.69 20.62C8.43 20.62 10.03 20.03 11.31 19.03C9.67 19 8.3 17.92 7.83 16.45C8.4 16.53 8.92 16.53 9.51 16.38C8.67 16.21 7.91 15.76 7.37 15.09C6.83 14.42 6.53 13.59 6.53 12.73L6.53 12.69C7.03 12.97 7.6 13.14 8.21 13.16C7.7 12.82 7.28 12.36 6.99 11.82C6.7 11.28 6.55 10.68 6.55 10.07C6.55 9.37 6.73 8.74 7.06 8.19C7.99 9.34 9.16 10.28 10.48 10.95C11.8 11.62 13.25 12 14.73 12.08C14.2 9.55 16.09 7.5 18.36 7.5C19.43 7.5 20.39 7.95 21.07 8.68C21.91 8.52 22.72 8.2 23.43 7.78C23.16 8.64 22.57 9.37 21.8 9.83C22.55 9.75 23.27 9.54 23.94 9.25C23.44 9.99 22.81 10.65 22.08 11.18Z" fill="#666666" fill-opacity="1.000000" fill-rule="nonzero"/>
</svg>
