<svg width="97.000000" height="59.000000" viewBox="0 0 97 59" fill="none" xmlns="http://www.w3.org/2000/svg" xmlns:xlink="http://www.w3.org/1999/xlink">
	<defs>
		<clipPath id="clip2_5989">
			<rect width="97.000000" height="59.000000" fill="white" fill-opacity="0"/>
		</clipPath>
	</defs>
	<rect width="97.000000" height="59.000000" fill="#FFFFFF" fill-opacity="0"/>
	<g clip-path="url(#clip2_5989)">
		<path d="M12.55 0L12.55 3.83C11.5 3.83 10.67 3.98 10.08 4.28C9.49 4.57 9.24 5.15 9.32 6.04L9.86 11.17C10 12.47 9.85 13.52 9.42 14.33C9 15.13 8.36 15.74 7.49 16.17C6.63 16.59 5.62 16.88 4.45 17.06C5.69 17.24 6.74 17.55 7.6 17.96C8.45 18.38 9.08 18.99 9.47 19.78C9.87 20.56 10 21.62 9.86 22.94L9.32 28.08C9.24 28.96 9.49 29.55 10.08 29.84C10.67 30.14 11.5 30.29 12.55 30.29L12.55 34.12C9.35 34.12 7.1 33.64 5.8 32.66C4.52 31.7 4 30.04 4.24 27.7L4.76 22.72C4.85 21.84 4.7 21.14 4.31 20.65C3.93 20.15 3.36 19.8 2.6 19.6C1.85 19.39 0.98 19.29 0 19.29L0 14.83C0.97 14.83 1.83 14.73 2.59 14.53C3.34 14.33 3.91 13.97 4.31 13.47C4.7 12.97 4.85 12.28 4.76 11.4L4.24 6.45C3.98 4.06 4.51 2.39 5.8 1.44C7.1 0.48 9.35 0 12.55 0Z" fill="#A7A7A7" fill-opacity="1.000000" fill-rule="nonzero"/>
		<path d="M27.63 4.5C30.5 4.5 32.67 5.62 34.13 7.85C35.61 10.07 36.34 13.16 36.34 17.13C36.34 21.11 35.61 24.23 34.13 26.48C32.67 28.72 30.5 29.84 27.63 29.84C24.73 29.84 22.55 28.72 21.09 26.48C19.64 24.23 18.91 21.11 18.91 17.13C18.91 13.16 19.64 10.07 21.09 7.85C22.55 5.62 24.73 4.5 27.63 4.5ZM27.63 8.49C26.4 8.49 25.5 9.15 24.93 10.48C24.36 11.79 24.08 14.01 24.08 17.13C24.08 18.15 24.1 19.06 24.13 19.86C24.17 20.65 24.22 21.35 24.29 21.97L30.17 9.66C29.89 9.22 29.54 8.92 29.12 8.75C28.72 8.58 28.22 8.49 27.63 8.49ZM31.14 17.13C31.14 15.79 31.11 14.67 31.05 13.75L25.51 25.23C25.76 25.47 26.06 25.64 26.41 25.73C26.77 25.82 27.18 25.87 27.63 25.87C28.45 25.87 29.12 25.59 29.63 25.03C30.15 24.48 30.53 23.56 30.78 22.28C31.02 20.99 31.14 19.28 31.14 17.13Z" fill="#A7A7A7" fill-opacity="1.000000" fill-rule="nonzero"/>
		<path d="M48.5 4.5C51.37 4.5 53.54 5.62 55 7.85C56.47 10.07 57.21 13.16 57.21 17.13C57.21 21.11 56.47 24.23 55 26.48C53.54 28.72 51.37 29.84 48.5 29.84C45.6 29.84 43.42 28.72 41.96 26.48C40.51 24.23 39.78 21.11 39.78 17.13C39.78 13.16 40.51 10.07 41.96 7.85C43.42 5.62 45.6 4.5 48.5 4.5ZM48.5 8.49C47.27 8.49 46.37 9.15 45.8 10.48C45.23 11.79 44.95 14.01 44.95 17.13C44.95 18.15 44.96 19.06 45 19.86C45.03 20.65 45.09 21.35 45.16 21.97L51.03 9.66C50.76 9.22 50.41 8.92 49.99 8.75C49.59 8.58 49.09 8.49 48.5 8.49ZM52.01 17.13C52.01 15.79 51.98 14.67 51.92 13.75L46.37 25.23C46.63 25.47 46.93 25.64 47.28 25.73C47.64 25.82 48.04 25.87 48.5 25.87C49.32 25.87 49.99 25.59 50.5 25.03C51.02 24.48 51.4 23.56 51.64 22.28C51.89 20.99 52.01 19.28 52.01 17.13Z" fill="#A7A7A7" fill-opacity="1.000000" fill-rule="nonzero"/>
		<path d="M68.11 29.8L62.89 28.19L71.88 9.26L61.29 9.26L61.29 5.11L77.45 5.11L77.45 8.84L68.11 29.8Z" fill="#A7A7A7" fill-opacity="1.000000" fill-rule="nonzero"/>
		<path d="M84.44 0C87.64 0 89.88 0.48 91.17 1.44C92.47 2.4 92.99 4.06 92.75 6.42L92.23 11.4C92.14 12.28 92.29 12.97 92.68 13.47C93.08 13.97 93.64 14.33 94.39 14.53C95.14 14.73 96.01 14.83 97 14.83L97 19.29C96.02 19.29 95.16 19.39 94.4 19.6C93.65 19.8 93.08 20.15 92.68 20.65C92.29 21.14 92.14 21.84 92.23 22.72L92.75 27.66C93.02 30.04 92.5 31.71 91.19 32.68C89.89 33.64 87.64 34.12 84.44 34.12L84.44 30.29C85.5 30.29 86.33 30.14 86.92 29.84C87.52 29.55 87.76 28.96 87.67 28.08L87.13 22.94C86.99 21.63 87.13 20.58 87.55 19.79C87.98 18.99 88.63 18.38 89.5 17.96C90.37 17.53 91.39 17.23 92.56 17.06C91.32 16.87 90.26 16.57 89.39 16.15C88.54 15.74 87.91 15.13 87.52 14.34C87.12 13.54 86.99 12.49 87.13 11.17L87.67 6.04C87.76 5.15 87.51 4.57 86.91 4.28C86.32 3.98 85.49 3.83 84.44 3.83L84.44 0Z" fill="#A7A7A7" fill-opacity="1.000000" fill-rule="nonzero"/>
		<path d="M12.27 42.16C13.24 42.16 14.02 42.4 14.61 42.88C15.2 43.36 15.63 44.04 15.9 44.92C16.18 45.79 16.32 46.83 16.32 48.04C16.32 49.18 16.15 50.2 15.82 51.1C15.48 51.99 15 52.69 14.37 53.21C13.73 53.72 12.97 53.97 12.06 53.97C10.98 53.97 10.11 53.59 9.43 52.81L9.43 57.9L6.13 58.25L6.13 42.52L9.06 42.52L9.2 43.77C9.65 43.19 10.15 42.78 10.68 42.53C11.22 42.28 11.75 42.16 12.27 42.16ZM11.25 44.59C10.86 44.59 10.53 44.71 10.23 44.94C9.94 45.17 9.67 45.48 9.43 45.88L9.43 50.56C9.66 50.9 9.9 51.15 10.15 51.31C10.41 51.47 10.71 51.55 11.06 51.55C11.64 51.55 12.1 51.28 12.43 50.76C12.75 50.22 12.92 49.33 12.92 48.08C12.92 47.16 12.85 46.45 12.72 45.95C12.59 45.44 12.39 45.09 12.14 44.89C11.89 44.69 11.59 44.59 11.25 44.59Z" fill="#A7A7A7" fill-opacity="1.000000" fill-rule="nonzero"/>
		<path d="M27.98 50.42C27.98 50.84 28.04 51.14 28.15 51.33C28.27 51.52 28.46 51.66 28.71 51.76L28.04 53.93C27.38 53.87 26.83 53.73 26.38 53.5C25.93 53.27 25.58 52.93 25.32 52.47C24.9 52.98 24.35 53.36 23.69 53.61C23.03 53.85 22.36 53.97 21.67 53.97C20.53 53.97 19.62 53.65 18.93 53C18.26 52.35 17.92 51.51 17.92 50.48C17.92 49.28 18.39 48.35 19.33 47.69C20.28 47.04 21.61 46.71 23.32 46.71L24.81 46.71L24.81 46.29C24.81 45.16 24.08 44.59 22.62 44.59C22.26 44.59 21.81 44.64 21.25 44.75C20.7 44.85 20.14 44.99 19.58 45.18L18.82 42.98C19.54 42.71 20.28 42.51 21.05 42.37C21.83 42.23 22.53 42.16 23.14 42.16C24.79 42.16 26.01 42.49 26.79 43.17C27.59 43.84 27.98 44.81 27.98 46.07L27.98 50.42ZM22.81 51.61C23.16 51.61 23.53 51.51 23.92 51.3C24.31 51.08 24.61 50.78 24.81 50.39L24.81 48.59L24 48.59C23.08 48.59 22.4 48.74 21.97 49.02C21.54 49.3 21.32 49.71 21.32 50.25C21.32 50.68 21.45 51.01 21.71 51.26C21.98 51.49 22.34 51.61 22.81 51.61Z" fill="#A7A7A7" fill-opacity="1.000000" fill-rule="nonzero"/>
		<path d="M41.63 42.52L37.94 53.62L34.05 53.62L30.32 42.52L33.88 42.52L36.04 51.09L38.29 42.52L41.63 42.52Z" fill="#A7A7A7" fill-opacity="1.000000" fill-rule="nonzero"/>
		<path d="M53.02 50.42C53.02 50.84 53.08 51.14 53.19 51.33C53.31 51.52 53.5 51.66 53.75 51.76L53.08 53.93C52.42 53.87 51.87 53.73 51.42 53.5C50.97 53.27 50.62 52.93 50.36 52.47C49.94 52.98 49.4 53.36 48.73 53.61C48.07 53.85 47.4 53.97 46.71 53.97C45.57 53.97 44.66 53.65 43.98 53C43.3 52.35 42.96 51.51 42.96 50.48C42.96 49.28 43.43 48.35 44.37 47.69C45.32 47.04 46.65 46.71 48.36 46.71L49.85 46.71L49.85 46.29C49.85 45.16 49.12 44.59 47.66 44.59C47.3 44.59 46.85 44.64 46.29 44.75C45.74 44.85 45.18 44.99 44.62 45.18L43.86 42.98C44.58 42.71 45.32 42.51 46.09 42.37C46.87 42.23 47.57 42.16 48.18 42.16C49.83 42.16 51.05 42.49 51.83 43.17C52.63 43.84 53.02 44.81 53.02 46.07L53.02 50.42ZM47.85 51.61C48.2 51.61 48.57 51.51 48.96 51.3C49.35 51.08 49.65 50.78 49.85 50.39L49.85 48.59L49.04 48.59C48.12 48.59 47.44 48.74 47.01 49.02C46.58 49.3 46.37 49.71 46.37 50.25C46.37 50.68 46.49 51.01 46.75 51.26C47.02 51.49 47.38 51.61 47.85 51.61Z" fill="#A7A7A7" fill-opacity="1.000000" fill-rule="nonzero"/>
		<path d="M56.21 53.62L56.21 42.52L59.09 42.52L59.32 43.81C59.82 43.25 60.34 42.84 60.89 42.56C61.44 42.29 62.07 42.16 62.77 42.16C63.71 42.16 64.46 42.45 65 43.02C65.54 43.6 65.82 44.42 65.82 45.47L65.82 53.62L62.52 53.62L62.52 46.42C62.52 45.74 62.44 45.26 62.29 45C62.14 44.73 61.86 44.59 61.45 44.59C61.1 44.59 60.77 44.7 60.45 44.93C60.14 45.15 59.82 45.46 59.51 45.86L59.51 53.62L56.21 53.62Z" fill="#A7A7A7" fill-opacity="1.000000" fill-rule="nonzero"/>
		<path d="M76.93 42.16C77.71 42.16 78.29 42.41 78.67 42.93C79.05 43.44 79.24 44.26 79.24 45.41L79.24 53.62L76.41 53.62L76.41 45.78C76.41 45.39 76.38 45.12 76.3 44.96C76.23 44.8 76.08 44.72 75.86 44.72C75.69 44.72 75.51 44.77 75.32 44.87C75.14 44.97 74.94 45.16 74.71 45.44L74.71 53.62L72.4 53.62L72.4 45.78C72.4 45.39 72.36 45.12 72.28 44.96C72.21 44.8 72.07 44.72 71.84 44.72C71.67 44.72 71.49 44.77 71.3 44.87C71.12 44.97 70.92 45.16 70.7 45.44L70.7 53.62L67.83 53.62L67.83 42.52L70.25 42.52L70.47 43.6C70.81 43.13 71.17 42.77 71.52 42.52C71.88 42.28 72.3 42.16 72.78 42.16C73.2 42.16 73.56 42.27 73.85 42.48C74.15 42.69 74.36 43.02 74.48 43.47C74.82 43.08 75.19 42.77 75.59 42.52C75.99 42.28 76.44 42.16 76.93 42.16Z" fill="#A7A7A7" fill-opacity="1.000000" fill-rule="nonzero"/>
		<path d="M91.1 40.75L91.87 43.17C91.48 43.32 91.02 43.44 90.5 43.5C89.98 43.57 89.37 43.61 88.67 43.61C89.37 43.91 89.9 44.28 90.26 44.73C90.63 45.17 90.81 45.74 90.81 46.46C90.81 47.18 90.62 47.82 90.24 48.38C89.86 48.94 89.31 49.38 88.61 49.7C87.91 50.02 87.08 50.18 86.12 50.18C85.66 50.18 85.23 50.14 84.83 50.06C84.72 50.12 84.63 50.21 84.56 50.33C84.5 50.45 84.47 50.57 84.47 50.69C84.47 50.87 84.54 51.02 84.68 51.16C84.82 51.3 85.16 51.37 85.69 51.37L87.51 51.37C88.37 51.37 89.11 51.51 89.74 51.79C90.37 52.07 90.86 52.45 91.21 52.93C91.56 53.41 91.73 53.96 91.73 54.58C91.73 55.71 91.23 56.61 90.24 57.26C89.24 57.92 87.77 58.25 85.8 58.25C84.39 58.25 83.29 58.1 82.51 57.81C81.73 57.52 81.2 57.11 80.89 56.57C80.59 56.04 80.44 55.41 80.44 54.68L83.36 54.68C83.36 55 83.42 55.26 83.55 55.47C83.68 55.68 83.93 55.83 84.29 55.93C84.66 56.02 85.19 56.07 85.89 56.07C86.59 56.07 87.13 56.02 87.5 55.91C87.86 55.79 88.11 55.64 88.25 55.45C88.39 55.26 88.46 55.05 88.46 54.81C88.46 54.48 88.33 54.22 88.07 54.01C87.81 53.81 87.4 53.71 86.85 53.71L85.08 53.71C83.89 53.71 83.02 53.49 82.48 53.05C81.93 52.61 81.66 52.09 81.66 51.5C81.66 51.09 81.77 50.7 81.98 50.33C82.21 49.96 82.52 49.65 82.91 49.4C82.2 49.02 81.7 48.58 81.39 48.07C81.08 47.55 80.93 46.94 80.93 46.22C80.93 45.39 81.14 44.67 81.57 44.07C81.99 43.46 82.58 43 83.32 42.67C84.07 42.34 84.93 42.18 85.89 42.18C86.72 42.19 87.44 42.14 88.05 42.01C88.66 41.88 89.21 41.7 89.7 41.48C90.18 41.25 90.65 41 91.1 40.75ZM85.97 44.32C85.45 44.32 85.04 44.49 84.73 44.82C84.42 45.15 84.27 45.6 84.27 46.18C84.27 46.79 84.43 47.26 84.74 47.59C85.05 47.92 85.46 48.08 85.97 48.08C87.1 48.08 87.66 47.43 87.66 46.14C87.66 44.93 87.1 44.32 85.97 44.32Z" fill="#A7A7A7" fill-opacity="1.000000" fill-rule="nonzero"/>
	</g>
</svg>
